<svg width="78" height="31" viewBox="0 0 78 31" fill="none" xmlns="http://www.w3.org/2000/svg">
    <path d="M5.628.42H0v5.63h5.628z" fill="#00C7FD"/>
    <path d="M5.488 29.743V9.473H.16v20.27zm35.412.2v-4.967c-.782 0-1.443-.04-1.923-.12-.561-.08-.982-.28-1.262-.56-.28-.281-.46-.682-.56-1.202-.081-.501-.121-1.162-.121-1.963v-7.09H40.9V9.474h-3.866V1.562h-5.348v19.609c0 1.662.14 3.064.42 4.186.281 1.102.762 2.003 1.423 2.684.66.68 1.542 1.162 2.604 1.462 1.081.3 2.443.44 4.066.44zm30.604-.2V0h-5.348v29.743zM26.54 11.457c-1.483-1.603-3.566-2.404-6.21-2.404-1.281 0-2.443.26-3.505.781a7.5 7.5 0 0 0-2.643 2.164l-.3.38V9.474H8.611v20.27h5.308V18.947v.74-.36c.06-1.903.521-3.305 1.402-4.206.942-.961 2.083-1.442 3.385-1.442 1.542 0 2.724.48 3.505 1.402.761.921 1.162 2.223 1.162 3.886v10.755h5.388V18.227c.02-2.885-.741-5.168-2.223-6.77m36.853 8.111c0-1.462-.26-2.824-.76-4.106a11 11 0 0 0-2.144-3.344c-.921-.962-2.023-1.703-3.305-2.244-1.282-.54-2.704-.8-4.246-.8-1.462 0-2.844.28-4.126.82-1.282.561-2.403 1.302-3.345 2.244a10.5 10.5 0 0 0-2.243 3.345c-.56 1.281-.821 2.663-.821 4.126 0 1.462.26 2.844.78 4.126a10.3 10.3 0 0 0 2.184 3.345c.921.94 2.063 1.702 3.385 2.243 1.322.56 2.784.841 4.346.841 4.527 0 7.331-2.063 9.013-3.986l-3.845-2.924c-.801.961-2.724 2.263-5.128 2.263-1.502 0-2.744-.34-3.685-1.041-.941-.681-1.582-1.643-1.923-2.824l-.06-.18h15.923zM47.51 17.707c0-1.482 1.703-4.066 5.368-4.086 3.665 0 5.388 2.584 5.388 4.066z" fill="#0068B5"/>
    <path d="M77.594 27.1c-.1-.241-.24-.441-.421-.622a2 2 0 0 0-1.382-.58c-.28 0-.52.06-.761.16-.24.1-.44.24-.621.42a2 2 0 0 0-.58 1.382c0 .28.06.521.16.761s.24.441.42.621.38.32.62.42c.241.101.502.161.762.161.28 0 .52-.06.761-.16.24-.1.44-.24.621-.42a2 2 0 0 0 .58-1.382 2 2 0 0 0-.16-.762m-.32 1.401c-.081.2-.201.38-.341.521-.14.14-.32.26-.521.34-.2.08-.4.12-.641.12-.22 0-.44-.04-.641-.12-.2-.08-.38-.2-.52-.34s-.261-.32-.341-.52a1.7 1.7 0 0 1-.12-.642c0-.22.04-.44.12-.64s.2-.381.34-.521.32-.26.521-.34c.2-.081.4-.121.641-.121.22 0 .44.04.64.12.201.08.381.2.522.34.14.14.26.321.34.521s.12.401.12.641c.02.24-.04.441-.12.641m-1.123-.48c.16-.02.28-.08.381-.18s.16-.241.16-.441c0-.22-.06-.38-.2-.501-.12-.12-.34-.18-.6-.18h-.882v2.263h.42v-.921h.3l.562.921h.44zm-.22-.32h-.5v-.642h.5c.06 0 .12.02.18.04s.1.06.12.1.04.1.04.18a.4.4 0 0 1-.04.18c-.04.04-.08.081-.12.101-.06.02-.12.04-.18.04" fill="#00C7FD"/>
</svg>
