<svg width="143" height="32" viewBox="0 0 143 32" fill="none" xmlns="http://www.w3.org/2000/svg">
    <path d="M77.624 10.304h3.192v8.877c0 4.506-2.484 7.09-6.81 7.09-4.281 0-6.742-2.539-6.742-6.966v-8.99h3.191v8.889c0 2.63 1.293 4.034 3.596 4.034s3.573-1.371 3.573-3.922zm-17.978 6.338H52.43v-6.338h-3.19v15.732h3.19v-6.394h7.203v6.394h3.191V10.304h-3.19v6.338zm79.916-6.338v15.71h3.146v-15.71zm-12.529 8.956h5.809v-2.865h-5.809V13.17h8.427v-2.855h-11.574v15.71h11.878v-2.866h-8.731zm-12.518 1.854-3.573-10.821h-2.607l-3.574 10.821-3.472-10.81h-3.393l5.483 15.72h2.641l3.573-10.326 3.573 10.327h2.664l5.472-15.72h-3.315zm-22.294-10.72 6.866 15.63h-3.349l-1.416-3.27H87.12l-.1.225-1.327 3.046h-3.258l6.933-15.72h2.787zm.764 9.147-2.27-5.27-2.258 5.27-.158.36h4.832z" fill="#24272A"/>
    <path d="M17.822 24.361c.045-.033.056-.1.034-.157A94.4 94.4 0 0 0 6.338 5.506s-3.618 3.438-3.36 6.888a6.07 6.07 0 0 0 2.102 4.147c3.157 3.078 10.798 6.966 12.574 7.854a.16.16 0 0 0 .168-.034m-1.18 2.63a.17.17 0 0 0-.168-.113l-12.72.439c1.382 2.46 3.708 4.37 6.124 3.787 1.674-.416 5.45-3.057 6.697-3.956.1-.078.067-.146.067-.157m.191-1.135c.068-.101-.045-.191-.045-.191C11.204 21.889.371 16.09.371 16.09a7.53 7.53 0 0 0 6.787 9.855c.191.034 7.563 0 9.54-.011a.2.2 0 0 0 .135-.08M17.676.01c-.55.045-2.045.394-2.045.394-3.371.865-4.169 3.932-4.169 3.932-.618 1.922.011 4.046.011 4.046 1.124 4.989 6.652 13.203 7.844 14.922.078.09.146.056.146.056.067-.022.123-.078.123-.157C21.43 4.866 17.676.011 17.676.011M21.89 23.34c.067.022.146 0 .18-.068 1.224-1.764 6.72-9.933 7.843-14.9 0 0 .607-2.404.022-4.045 0 0-.831-3.112-4.202-3.933 0 0-.967-.247-2-.393 0 0-3.776 4.854-1.933 23.193-.011.067.034.123.09.146m3.011 3.55a.22.22 0 0 0-.146.102c-.011.067 0 .123.045.168 1.214.877 4.91 3.461 6.686 3.956 0 0 3.292 1.123 6.147-3.787zm16.125-10.82s-10.81 5.81-16.406 9.585c-.056.045-.09.112-.067.18 0 0 .056.1.135.1 2 0 9.574.012 9.776-.022a7.3 7.3 0 0 0 2.191-.506s2.697-.854 4.09-3.921c0 0 1.248-2.495.281-5.416m-17.428 8.29a.15.15 0 0 0 .168.012c1.82-.91 9.406-4.765 12.54-7.832 0 0 1.99-1.596 2.09-4.17.225-3.561-3.36-6.865-3.36-6.865s-6.629 8.034-11.494 18.653a.22.22 0 0 0 .056.202" fill="#CE0E2D"/>
</svg>
