<svg width="130" height="32" viewBox="0 0 130 32" fill="none" xmlns="http://www.w3.org/2000/svg">
    <path d="M115.396 10.5118C116.127 10.5118 116.73 10.1314 116.811 9.63989L117.533 1.47037C117.533 0.662892 116.587 0 115.398 0C114.21 0 113.265 0.662889 113.265 1.47051L113.987 9.63989C114.066 10.1312 114.668 10.5118 115.398 10.5118H115.396ZM110.98 13.0635C111.347 12.4307 111.32 11.7194 110.933 11.4034L104.218 6.69304C103.52 6.28871 102.473 6.77538 101.879 7.80572C101.283 8.83475 101.389 9.98402 102.085 10.3885L109.52 13.8504C109.985 14.0227 110.619 13.6911 110.983 13.0587L110.98 13.0635ZM119.815 13.0591C120.182 13.6916 120.812 14.0233 121.277 13.8509L128.713 10.3889C129.413 9.9846 129.513 8.83519 128.922 7.80616C128.325 6.77684 127.277 6.28915 126.58 6.69347L119.865 11.4038C119.481 11.7194 119.452 12.4312 119.817 13.064L119.815 13.0591ZM115.396 20.7168C116.127 20.7168 116.73 21.094 116.811 21.5859L117.533 29.7543C117.533 30.5642 116.587 31.2257 115.398 31.2257C114.21 31.2257 113.265 30.5642 113.265 29.7543L113.987 21.5859C114.066 21.094 114.668 20.7168 115.398 20.7168H115.396ZM119.815 18.1645C120.182 17.5303 120.812 17.2015 121.277 17.3758L128.713 20.8354C129.413 21.2402 129.513 22.3906 128.922 23.4205C128.325 24.4465 127.277 24.9355 126.58 24.5317L119.865 19.8258C119.481 19.5077 119.452 18.7954 119.817 18.1632H119.814M110.98 18.1636C111.347 18.7954 111.32 19.5077 110.933 19.8264L104.218 24.5322C103.52 24.9359 102.473 24.4469 101.879 23.421C101.283 22.3911 101.389 21.2406 102.085 20.8359L109.52 17.3762C109.985 17.2019 110.619 17.5307 110.983 18.1651H110.98" fill="#FDBB30"/>
    <path d="M73.0406 19.8106C73.0406 20.0613 73.0183 20.3198 72.9497 20.5469C72.6649 21.4901 71.6883 22.2877 70.4666 22.2877C69.448 22.2877 68.6389 21.709 68.6389 20.4869C68.6389 18.6164 70.6976 18.0999 73.0412 18.1128L73.0406 19.8104V19.8106ZM76.7166 16.5509C76.7166 13.4666 75.3987 10.7527 70.9456 10.7527C68.6597 10.7527 66.8455 11.3947 65.8553 11.967L66.5805 14.4465C67.4855 13.8752 68.9279 13.4022 70.2929 13.4022C72.5516 13.3959 72.9216 14.6813 72.9216 15.504V15.6987C67.9978 15.6914 64.8854 17.3963 64.8854 20.8693C64.8854 22.9915 66.4706 24.9792 69.2263 24.9792C70.9195 24.9792 72.3377 24.3033 73.1864 23.2196H73.2702C73.2702 23.2196 73.8318 25.5724 76.9321 24.6722C76.7703 23.6938 76.7171 22.6493 76.7171 21.3933L76.7167 16.5509M0 6.55234C0 6.55234 3.21753 19.7364 3.73131 21.8761C4.33065 24.3736 5.41084 25.293 8.52371 24.6722L10.5326 16.4986C11.042 14.4674 11.383 13.0192 11.7112 10.955H11.7683C11.9988 13.041 12.3257 14.4736 12.7449 16.5053C12.7449 16.5053 13.5623 20.2162 13.9816 22.1647C14.4014 24.1125 15.5698 25.3409 18.6192 24.6722L23.4064 6.55176H19.5424L17.9074 14.3865C17.4678 16.6661 17.0693 18.4494 16.7617 20.5344H16.7071C16.4277 18.4677 16.0719 16.7572 15.6254 14.5356L13.9245 6.55176H9.89788L8.07741 14.3343C7.56217 16.6999 7.07899 18.6093 6.77291 20.6249H6.71723C6.40298 18.7269 5.98467 16.3262 5.53196 14.0374C5.53196 14.0374 4.45119 8.47061 4.07106 6.55176L0 6.55234ZM30.7154 19.8106C30.7154 20.0613 30.6931 20.3198 30.6234 20.5469C30.3392 21.4901 29.362 22.2877 28.1403 22.2877C27.1215 22.2877 26.3136 21.709 26.3136 20.4869C26.3136 18.6164 28.3718 18.0999 30.7158 18.1128L30.7154 19.8104V19.8106ZM34.3909 16.5509C34.3909 13.4666 33.0729 10.7527 28.6207 10.7527C26.3343 10.7527 24.5186 11.3947 23.529 11.967L24.2534 14.4465C25.1582 13.8752 26.6006 13.4022 27.966 13.4022C30.2264 13.3959 30.5963 14.6813 30.5963 15.504V15.6987C25.6705 15.6914 22.5595 17.3963 22.5595 20.8693C22.5595 22.9915 24.1439 24.9792 26.8975 24.9792C28.593 24.9792 30.0104 24.3033 30.8601 23.2196H30.9429C30.9429 23.2196 31.5061 25.5724 34.6057 24.6722C34.4436 23.6938 34.3909 22.6493 34.3909 21.3933V16.5509ZM40.5251 20.8258V6.55234H36.8448V24.6728H40.5251V20.8258ZM88.67 6.55234V19.9195C88.67 21.7633 89.0176 23.0536 89.7588 23.8433C90.4083 24.5338 91.4753 24.9806 92.7551 24.9806C93.8436 24.9806 94.9137 24.7729 95.4187 24.5856L95.3712 21.7105C94.9955 21.8023 94.564 21.8766 93.9734 21.8766C92.7194 21.8766 92.3 21.0733 92.3 19.4188V14.3043H95.5049V10.8368H92.3V6.55234H88.67ZM79.1706 11.0601V24.6728H82.9671V17.7028C82.9671 17.3261 82.9898 16.9978 83.0494 16.6976C83.3303 15.2368 84.4468 14.3043 86.0505 14.3043C86.4901 14.3043 86.8048 14.3521 87.1457 14.4005V10.8368C86.8596 10.7798 86.6655 10.7531 86.3095 10.7531C84.8928 10.7531 83.2809 11.6673 82.6045 13.6283H82.5018V11.0601H79.1706ZM43.102 11.0601V24.6728H46.8008V16.6903C46.8008 16.3157 46.8448 15.9195 46.9745 15.5761C47.2811 14.7724 48.0291 13.8312 49.2227 13.8312C50.7159 13.8312 51.4132 15.093 51.4132 16.914V24.6718H55.1091V16.592C55.1091 16.2347 55.1579 15.8038 55.2636 15.4887C55.567 14.5739 56.3728 13.8301 57.4825 13.8301C58.9956 13.8301 59.7219 15.0698 59.7219 17.2132V24.6713H63.4203V16.6534C63.4203 12.4255 61.2733 10.7518 58.8494 10.7518C57.777 10.7518 56.9296 11.0204 56.1632 11.4901C55.5197 11.8865 54.9425 12.4482 54.4389 13.1866H54.3843C53.7998 11.7196 52.4246 10.7525 50.6325 10.7525C48.3303 10.7525 47.2956 11.9196 46.668 12.9093H46.6129V11.0596H43.102" fill="#1A75CF"/>
</svg>
