<svg width="90" height="32" viewBox="0 0 90 32" fill="none" xmlns="http://www.w3.org/2000/svg">
    <path d="M5.176 22.3q.57 1.514 1.579 2.588a6.8 6.8 0 0 0 2.39 1.645q1.382.57 3.005.57 1.579 0 2.96-.592a7.3 7.3 0 0 0 2.413-1.666 7.6 7.6 0 0 0 1.6-2.566q.57-1.491.57-3.333V0H24.3v30.7h-4.561v-2.851a10.6 10.6 0 0 1-3.619 2.5q-2.083.877-4.496.877-2.456 0-4.583-.856a10.7 10.7 0 0 1-3.685-2.434Q1.8 26.358.9 24.143T0 19.209V0h4.605v18.946q0 1.842.57 3.355M32.237 0v11.183a11.7 11.7 0 0 1 3.552-2.434q2.019-.9 4.387-.899 2.456 0 4.605.921a11.8 11.8 0 0 1 3.728 2.5 11.8 11.8 0 0 1 2.5 3.728q.921 2.149.922 4.56 0 2.413-.922 4.54a11.8 11.8 0 0 1-2.5 3.706 11.8 11.8 0 0 1-3.728 2.5q-2.15.92-4.605.92-2.37 0-4.409-.899-2.039-.898-3.574-2.434V30.7h-4.386V0zm.504 22.586a7.6 7.6 0 0 0 1.645 2.456 7.9 7.9 0 0 0 2.456 1.666q1.404.614 3.027.614a7.4 7.4 0 0 0 2.982-.613 7.7 7.7 0 0 0 2.435-1.667 8.1 8.1 0 0 0 1.644-2.456q.614-1.403.614-3.026a7.6 7.6 0 0 0-.614-3.048 8.1 8.1 0 0 0-1.645-2.478 7.4 7.4 0 0 0-2.434-1.645 7.6 7.6 0 0 0-2.982-.592 7.6 7.6 0 0 0-2.983.592 7.6 7.6 0 0 0-2.456 1.645 7.9 7.9 0 0 0-1.667 2.478 7.6 7.6 0 0 0-.614 3.048q0 1.622.592 3.026m21.689-7.543a11.9 11.9 0 0 1 2.412-3.706 11.2 11.2 0 0 1 3.64-2.522q2.106-.92 4.562-.92 2.413 0 4.474.877a10.6 10.6 0 0 1 3.553 2.434q1.492 1.556 2.325 3.684.833 2.127.833 4.626v1.448H58.027a7.6 7.6 0 0 0 2.522 4.539 7.5 7.5 0 0 0 2.236 1.337 7.3 7.3 0 0 0 2.654.483q3.991 0 6.448-3.29l3.202 2.369a11.9 11.9 0 0 1-4.123 3.508q-2.457 1.272-5.527 1.272-2.5 0-4.671-.877a11.4 11.4 0 0 1-3.772-2.456 11.7 11.7 0 0 1-2.522-3.706q-.921-2.127-.921-4.627 0-2.368.877-4.473m6.162-1.732q-1.863 1.556-2.478 4.144h13.641q-.57-2.587-2.434-4.144t-4.364-1.557-4.365 1.557m23.928.504q-1.404 1.535-1.404 4.166V30.7h-4.43V8.333h4.386v2.763a6.2 6.2 0 0 1 2.17-2.15q1.34-.789 3.18-.789h1.536v4.123h-1.842q-2.193 0-3.597 1.535" fill="#010202"/>
</svg>
