<svg width="95" height="32" viewBox="0 0 95 32" fill="none" xmlns="http://www.w3.org/2000/svg">
    <path d="M20.504 24.71c-1.113.196-2.246.255-3.418.411l-3.574-10.469V25.57c-1.114.117-2.13.274-3.184.43V6h2.969l4.062 11.348V6h3.145zm6.152-11.386c1.211 0 3.067-.058 4.18-.058v3.124c-1.387 0-3.008 0-4.18.06v4.648c1.836-.117 3.672-.274 5.528-.332v3.007l-8.653.684V6h8.653v3.125h-5.528zm17.149-4.199h-3.243V23.5c-1.054 0-2.109 0-3.124.039V9.125h-3.243V6h9.61zm5.078 3.984h4.277v3.125h-4.277v7.09h-3.067V6h8.73v3.125h-5.663zm10.742 7.48c1.777.04 3.574.177 5.312.274v3.086c-2.792-.176-5.585-.351-8.437-.41V6h3.125zm7.95 3.575c.995.059 2.05.117 3.066.234V6h-3.067zM84.331 6l-3.965 9.512L84.332 26c-1.172-.156-2.344-.371-3.516-.567l-2.246-5.78-2.285 5.312c-1.133-.195-2.227-.254-3.36-.41l4.024-9.16L73.316 6h3.36l2.05 5.254L80.914 6z" fill="#D81F26"/>
</svg>
