<svg width="129" height="36" viewBox="0 0 129 36" fill="none" xmlns="http://www.w3.org/2000/svg">
    <path d="M6.64.126C3.998 1.213 1.095 4.286.18 8.141c-1.161 4.885 3.67 6.95 4.066 6.273.467-.796-.865-1.065-1.14-3.6-.354-3.273 1.193-6.931 3.14-8.536.362-.298.345.117.345.884 0 1.373-.077 13.697-.077 16.269 0 3.48-.147 4.58-.409 5.665-.266 1.1-.693 1.844-.37 2.13.362.321 1.908-.441 2.802-1.67 1.073-1.472 1.448-3.241 1.516-5.162.081-2.316.078-5.991.081-8.087.003-1.923.033-7.552-.034-10.936C10.083.541 7.743-.33 6.64.125m93.756 16.288c-.085 1.81-.492 3.224-.997 4.221-.978 1.932-3.008 2.531-3.87-.245-.47-1.513-.492-4.04-.154-6.152.344-2.151 1.303-3.776 2.893-3.63 1.567.146 2.301 2.132 2.128 5.806M73.972 27.64c-.022 3.006-.503 5.642-1.534 6.407-1.463 1.086-3.429.272-3.022-1.922.36-1.941 2.064-3.924 4.56-6.346 0 0 .005.552-.004 1.86m-.4-11.243c-.09 1.648-.524 3.303-.997 4.239-.978 1.93-3.023 2.534-3.87-.246-.58-1.9-.44-4.358-.154-5.907.372-2.01 1.273-3.874 2.892-3.874 1.575 0 2.351 1.699 2.13 5.788m-15.308-.025c-.096 1.745-.442 3.204-.997 4.264-1.005 1.917-2.993 2.526-3.87-.246-.632-1.998-.417-4.723-.154-6.195.39-2.184 1.367-3.733 2.893-3.586 1.566.15 2.328 2.132 2.128 5.763m70.152 2.038c-.383 0-.557.389-.702 1.042-.502 2.274-1.029 2.787-1.709 2.787-.759 0-1.442-1.126-1.617-3.379-.138-1.772-.116-5.033.061-8.278.036-.667-.151-1.326-1.969-1.976-.782-.28-1.919-.69-2.485.654-1.599 3.797-2.225 6.812-2.372 8.037-.008.063-.087.076-.101-.072-.094-.98-.303-2.763-.329-6.509-.005-.73-.163-1.352-.983-1.862-.532-.33-2.147-.915-2.729-.22-.504.57-1.087 2.1-1.694 3.914-.493 1.474-.836 2.471-.836 2.471s.007-3.978.012-5.487c.003-.569-.394-.759-.514-.793-.538-.154-1.6-.41-2.05-.41-.556 0-.692.305-.692.75 0 .059-.088 5.238-.088 8.859l.002.511c-.308 1.665-1.305 3.924-2.389 3.924-1.086 0-1.598-.945-1.598-5.262 0-2.518.077-3.613.115-5.435.022-1.05.064-1.855.062-2.038-.008-.56-.994-.843-1.453-.948s-.861-.146-1.173-.128c-.443.024-.756.31-.756.703 0 .21.003.61.003.61-.57-.88-1.487-1.494-2.097-1.671-1.643-.48-3.357-.055-4.65 1.725-1.028 1.414-1.647 3.016-1.891 5.317-.178 1.683-.12 3.39.197 4.832-.383 1.628-1.094 2.295-1.872 2.295-1.13 0-1.949-1.814-1.854-4.951.063-2.064.483-3.512.942-5.607.195-.893.036-1.36-.362-1.809-.366-.41-1.145-.62-2.265-.362-.798.184-1.938.382-2.982.534 0 0 .063-.247.115-.683.271-2.285-2.253-2.1-3.058-1.37-.481.436-.808.95-.932 1.874-.197 1.466 1.018 2.158 1.018 2.158-.398 1.796-1.376 4.143-2.386 5.839-.54.909-.954 1.582-1.488 2.298l-.004-.798a345 345 0 0 1 .061-7.82c.022-1.049.065-1.833.063-2.016-.006-.41-.25-.565-.756-.761a5.4 5.4 0 0 0-1.526-.336c-.694-.053-1.111.309-1.1.737.002.08.002.576.002.576-.57-.881-1.487-1.494-2.097-1.672-1.643-.48-3.357-.055-4.65 1.725-1.027 1.414-1.7 3.399-1.89 5.3-.178 1.772-.146 3.278.097 4.546-.262 1.27-1.013 2.598-1.862 2.598-1.086 0-1.703-.944-1.703-5.262 0-2.518.076-3.613.114-5.435.022-1.049.065-1.855.062-2.038-.008-.56-.993-.843-1.452-.947-.48-.11-.894-.15-1.212-.127-.42.031-.715.4-.715.677v.635c-.57-.881-1.487-1.494-2.097-1.672-1.642-.48-3.347-.048-4.65 1.725-.849 1.156-1.537 2.438-1.89 5.275q-.153 1.23-.142 2.305c-.339 2.038-1.835 4.387-3.059 4.387-.716 0-1.398-1.367-1.398-4.279 0-3.879.244-9.402.286-9.934l1.845-.03c.771-.008 1.47.01 2.497-.041.515-.026 1.012-1.845.48-2.07-.241-.102-1.944-.192-2.62-.206-.567-.012-2.148-.127-2.148-.127s.142-3.666.175-4.054c.028-.322-.397-.488-.64-.59-.592-.246-1.122-.363-1.75-.49-.867-.177-1.26-.005-1.337.715-.116 1.093-.176 4.294-.176 4.294-.636 0-2.81-.122-3.447-.122-.591 0-1.23 2.502-.412 2.533.941.036 2.58.067 3.668.099 0 0-.049 5.614-.049 7.347l.002.534c-.598 3.068-2.705 4.724-2.705 4.724.453-2.029-.472-3.553-2.137-4.843a158 158 0 0 0-3.179-2.36s.785-.762 1.48-2.292c.494-1.085.515-2.326-.695-2.6-2-.452-3.649.993-4.14 2.536-.382 1.195-.178 2.081.568 3.002q.081.101.175.206a79 79 0 0 1-1.597 2.902c-1.458 2.48-2.56 4.443-3.392 4.443-.665 0-.656-1.992-.656-3.858 0-1.608.12-4.026.217-6.53.032-.827-.389-1.299-1.094-1.726-.429-.26-1.343-.77-1.873-.77-.793 0-3.081.106-5.243 6.258-.272.775-.808 2.188-.808 2.188l.047-7.398c0-.173-.094-.34-.31-.455-.364-.195-1.337-.593-2.202-.593q-.618 0-.618.565L13.2 20.446c0 .88.023 1.905.112 2.354.088.45.23.815.407 1.032s.38.383.717.451c.313.063 2.028.28 2.117-.365.107-.772.11-1.608 1.011-4.724 1.402-4.852 3.23-7.22 4.089-8.06.15-.147.322-.156.313.084-.036 1.064-.165 3.722-.252 5.98-.233 6.044.885 7.164 2.482 7.164 1.221 0 2.944-1.194 4.79-4.218 1.15-1.883 2.268-3.73 3.071-5.062.56.51 1.188 1.058 1.815 1.644 1.459 1.361 1.937 2.655 1.62 3.882-.243.939-1.158 1.906-2.787.966-.474-.274-.677-.486-1.154-.795-.257-.166-.648-.216-.883-.042-.61.452-.958 1.027-1.157 1.74-.194.692.511 1.059 1.243 1.38.63.275 1.983.525 2.846.553 3.363.11 6.057-1.597 7.932-6.003.336 3.805 1.764 5.958 4.247 5.958 1.66 0 3.323-2.11 4.05-4.186.21.846.519 1.582.918 2.204 1.913 2.982 5.623 2.34 7.487-.192.576-.782.664-1.063.664-1.063.272 2.39 2.229 3.226 3.349 3.226 1.255 0 2.55-.584 3.458-2.595q.16.328.35.624c1.912 2.982 5.623 2.34 7.487-.192q.131-.177.23-.323l.055 1.57-1.716 1.549c-2.872 2.592-5.057 4.56-5.217 6.85-.207 2.92 2.201 4.006 4.023 4.149 1.935.15 3.591-.9 4.61-2.372.895-1.295 1.482-4.082 1.439-6.835-.017-1.103-.046-2.504-.068-4.007a32 32 0 0 0 3.195-4.318c1.141-1.86 2.365-4.357 2.991-6.3 0 0 1.063.009 2.197-.064.363-.024.467.05.4.31-.08.317-1.433 5.447-.2 8.865.846 2.34 2.75 3.092 3.878 3.092 1.322 0 2.586-.982 3.264-2.44q.12.246.26.466c1.912 2.98 5.61 2.335 7.487-.192.423-.57.664-1.064.664-1.064.402 2.474 2.358 3.239 3.478 3.239 1.167 0 2.274-.471 3.173-2.562.037.92.097 1.673.19 1.91.057.146.388.328.63.416 1.067.39 2.156.206 2.558.125.279-.055.497-.275.527-.844.078-1.493.03-4.002.49-5.866.772-3.129 1.493-4.343 1.835-4.943.191-.337.407-.393.414-.036.017.72.053 2.838.352 5.682.22 2.092.514 3.328.739 3.72.644 1.119 1.439 1.172 2.087 1.172.411 0 1.273-.112 1.196-.824-.038-.348.028-2.493.789-5.575.498-2.013 1.327-3.832 1.626-4.497.11-.245.161-.052.159-.014-.063 1.386-.204 5.92.37 8.4.778 3.36 3.03 3.736 3.814 3.736 1.675 0 3.044-1.253 3.506-4.551.111-.794-.054-1.406-.547-1.406" fill="#262626"/>
</svg>
